<svg width="40" height="40" viewBox="0 0 40 40" fill="none" xmlns="http://www.w3.org/2000/svg">
<path d="M30 3.33331V6.66665M10 3.33331V6.66665" stroke="#141B34" stroke-width="1.5" stroke-linecap="round" stroke-linejoin="round"/>
<path d="M19.9925 21.6667H20.0075M19.9925 28.3334H20.0075M26.6517 21.6667H26.6667M13.3334 21.6667H13.3483M13.3334 28.3334H13.3483" stroke="#141B34" stroke-width="2" stroke-linecap="round" stroke-linejoin="round"/>
<path d="M5.83337 13.3333H34.1667" stroke="#141B34" stroke-width="1.5" stroke-linecap="round" stroke-linejoin="round"/>
<path d="M4.16663 20.4053C4.16663 13.1432 4.16663 9.51213 6.25349 7.25607C8.34036 5 11.6991 5 18.4166 5H21.5833C28.3008 5 31.6596 5 33.7465 7.25607C35.8333 9.51213 35.8333 13.1432 35.8333 20.4053V21.2613C35.8333 28.5235 35.8333 32.1545 33.7465 34.4107C31.6596 36.6667 28.3008 36.6667 21.5833 36.6667H18.4166C11.6991 36.6667 8.34036 36.6667 6.25349 34.4107C4.16663 32.1545 4.16663 28.5235 4.16663 21.2613V20.4053Z" stroke="#141B34" stroke-width="1.5" stroke-linecap="round" stroke-linejoin="round"/>
<path d="M5 13.3333H35" stroke="#141B34" stroke-width="1.5" stroke-linecap="round" stroke-linejoin="round"/>
</svg>
