<svg width="30" height="29" viewBox="0 0 30 29" fill="none" xmlns="http://www.w3.org/2000/svg">
<rect width="30" height="29" fill="#1E1E1E"/>
<g id="Communities Section" clip-path="url(#clip0_3_15)">
<rect width="1440" height="1024" transform="translate(-869 -133)" fill="white"/>
<g id="Notification menu">
<g id="Rectangle 202" filter="url(#filter0_d_3_15)">
<rect x="-20" y="-72" width="286" height="386" rx="16" fill="white"/>
<rect x="-19.5" y="-71.5" width="285" height="385" rx="15.5" stroke="black" stroke-opacity="0.13"/>
</g>
<g id="calendar-03">
<path id="Vector" d="M22.5 2.41663V4.83329M7.5 2.41663V4.83329" stroke="#141B34" stroke-width="1.5" stroke-linecap="round" stroke-linejoin="round"/>
<path id="Vector_2" d="M14.9944 15.7084H15.0056M14.9944 20.5417H15.0056M19.9888 15.7084H20M10 15.7084H10.0112M10 20.5417H10.0112" stroke="#141B34" stroke-width="2" stroke-linecap="round" stroke-linejoin="round"/>
<path id="Vector_3" d="M4.375 9.66663H25.625" stroke="#141B34" stroke-width="1.5" stroke-linecap="round" stroke-linejoin="round"/>
<path id="Vector_4" d="M3.125 14.7939C3.125 9.52884 3.125 6.8963 4.69015 5.26065C6.2553 3.625 8.77436 3.625 13.8125 3.625H16.1875C21.2256 3.625 23.7448 3.625 25.3099 5.26065C26.875 6.8963 26.875 9.52884 26.875 14.7939V15.4145C26.875 20.6795 26.875 23.312 25.3099 24.9477C23.7448 26.5833 21.2256 26.5833 16.1875 26.5833H13.8125C8.77436 26.5833 6.2553 26.5833 4.69015 24.9477C3.125 23.312 3.125 20.6795 3.125 15.4145V14.7939Z" stroke="#141B34" stroke-width="1.5" stroke-linecap="round" stroke-linejoin="round"/>
<path id="Vector_5" d="M3.75 9.66663H26.25" stroke="#141B34" stroke-width="1.5" stroke-linecap="round" stroke-linejoin="round"/>
</g>
</g>
</g>
<defs>
<filter id="filter0_d_3_15" x="-24" y="-72" width="294" height="394" filterUnits="userSpaceOnUse" color-interpolation-filters="sRGB">
<feFlood flood-opacity="0" result="BackgroundImageFix"/>
<feColorMatrix in="SourceAlpha" type="matrix" values="0 0 0 0 0 0 0 0 0 0 0 0 0 0 0 0 0 0 127 0" result="hardAlpha"/>
<feOffset dy="4"/>
<feGaussianBlur stdDeviation="2"/>
<feComposite in2="hardAlpha" operator="out"/>
<feColorMatrix type="matrix" values="0 0 0 0 0 0 0 0 0 0 0 0 0 0 0 0 0 0 0.25 0"/>
<feBlend mode="normal" in2="BackgroundImageFix" result="effect1_dropShadow_3_15"/>
<feBlend mode="normal" in="SourceGraphic" in2="effect1_dropShadow_3_15" result="shape"/>
</filter>
<clipPath id="clip0_3_15">
<rect width="1440" height="1024" fill="white" transform="translate(-869 -133)"/>
</clipPath>
</defs>
</svg>
