<svg width="115" height="54" viewBox="0 0 115 54" fill="none" xmlns="http://www.w3.org/2000/svg">
<path fill-rule="evenodd" clip-rule="evenodd" d="M37.1507 1.17804L4.90999 18.9426C0.49114 21.3729 -1.02168 26.764 1.53252 30.9803C4.07969 35.1965 9.72991 36.6399 14.1488 34.2029L46.3894 16.4451C50.8083 14.0147 52.3211 8.62356 49.7669 4.40734C47.2197 0.191116 41.5695 -1.25233 37.1507 1.18476V1.17804Z" fill="#EA4334"/>
<path fill-rule="evenodd" clip-rule="evenodd" d="M46.0939 36.8413L13.8533 19.0834C9.43441 16.6531 3.79123 18.0965 1.23703 22.306C-1.31014 26.5223 0.202681 31.9067 4.61449 34.3438L36.8552 52.1016C41.274 54.5319 46.9172 53.0885 49.4714 48.879C52.0186 44.6627 50.5058 39.2783 46.0939 36.8413Z" fill="#4285F4"/>
<path fill-rule="evenodd" clip-rule="evenodd" d="M67.6535 37.1234L99.8942 19.3655C104.313 16.9352 109.956 18.3786 112.51 22.5881C115.058 26.8044 113.545 32.1888 109.133 34.6259L76.8923 52.3836C72.4734 54.814 66.8302 53.3706 64.276 49.1611C61.7289 44.9448 63.2417 39.5604 67.6535 37.1234Z" fill="#FCBC05"/>
<path fill-rule="evenodd" clip-rule="evenodd" d="M77.1807 1.45996L109.421 19.2178C113.84 21.6481 115.353 27.0393 112.799 31.2555C110.252 35.4717 104.601 36.9152 100.183 34.4781L67.9419 16.7203C63.5231 14.2899 62.0102 8.89877 64.5644 4.68255C67.1116 0.466331 72.7618 -0.977122 77.1807 1.45996Z" fill="#0D9D58"/>
</svg>
