<svg width="22" height="22" viewBox="0 0 22 22" fill="none" xmlns="http://www.w3.org/2000/svg">
<path d="M10.8878 0.565218C4.99545 0.565218 0.217407 5.34242 0.217407 11.2356C0.217407 15.9501 3.27479 19.9498 7.51448 21.3607C8.04772 21.4595 8.24355 21.1293 8.24355 20.8474C8.24355 20.593 8.23359 19.7524 8.22907 18.8608C5.26048 19.5063 4.63409 17.6018 4.63409 17.6018C4.14872 16.3685 3.44935 16.0406 3.44935 16.0406C2.48128 15.3783 3.52233 15.3918 3.52233 15.3918C4.59384 15.4672 5.15805 16.4915 5.15805 16.4915C6.10973 18.1228 7.65423 17.6511 8.26313 17.3785C8.35887 16.6888 8.63545 16.2182 8.94057 15.9517C6.57058 15.6818 4.07909 14.7669 4.07909 10.6783C4.07909 9.51341 4.49593 8.56148 5.17855 7.81425C5.06775 7.54545 4.70255 6.46022 5.28191 4.99044C5.28191 4.99044 6.17793 4.70365 8.21702 6.08422C9.0681 5.84772 9.98095 5.72922 10.8878 5.7252C11.7946 5.72922 12.7081 5.84772 13.5609 6.08422C15.5975 4.70365 16.4923 4.99044 16.4923 4.99044C17.0731 6.46022 16.7077 7.54545 16.5969 7.81425C17.281 8.56148 17.695 9.51333 17.695 10.6783C17.695 14.7766 15.1988 15.679 12.8228 15.9432C13.2055 16.2743 13.5466 16.9237 13.5466 17.9191C13.5466 19.3468 13.5342 20.4959 13.5342 20.8474C13.5342 21.1313 13.7262 21.4641 14.2672 21.3593C18.5045 19.9468 21.558 15.9485 21.558 11.2356C21.558 5.34242 16.7807 0.565218 10.8878 0.565218Z" fill="white"/>
</svg>
