<svg width="32" height="32" viewBox="0 0 32 32" fill="none" xmlns="http://www.w3.org/2000/svg">
<path d="M25.3912 16.6024C25.3912 15.9433 25.3274 15.2629 25.2211 14.625H16.0144V18.3885H21.2875C21.0749 19.6004 20.3732 20.6636 19.3314 21.344L22.4782 23.7892C24.3281 22.0669 25.3912 19.5579 25.3912 16.6024Z" fill="#4280EF"/>
<path d="M16.016 26.128C18.6526 26.128 20.8639 25.2563 22.4798 23.7679L19.333 21.3439C18.4612 21.9393 17.3343 22.2795 16.016 22.2795C13.4645 22.2795 11.317 20.5572 10.5303 18.2609L7.29834 20.7486C8.95682 24.0443 12.3163 26.128 16.016 26.128Z" fill="#34A353"/>
<path d="M10.5294 18.2396C10.1255 17.0277 10.1255 15.7094 10.5294 14.4974L7.29754 11.9884C5.91547 14.7526 5.91547 18.0058 7.29754 20.7486L10.5294 18.2396Z" fill="#F6B704"/>
<path d="M16.016 10.4789C17.3981 10.4576 18.7589 10.9892 19.7582 11.946L22.5436 9.13931C20.7788 7.48083 18.4399 6.5878 16.016 6.60907C12.3163 6.60907 8.95682 8.6928 7.29834 11.9885L10.5303 14.4975C11.317 12.1799 13.4645 10.4789 16.016 10.4789Z" fill="#E54335"/>
</svg>
