<svg width="40" height="40" viewBox="0 0 40 40" fill="none" xmlns="http://www.w3.org/2000/svg">
<path d="M3.33337 30C3.33337 27.4326 3.33337 26.1488 3.91126 25.2058C4.23461 24.6781 4.67826 24.2345 5.20592 23.9111C6.14894 23.3333 7.43264 23.3333 10 23.3333C12.5674 23.3333 13.8511 23.3333 14.7942 23.9111C15.3218 24.2345 15.7655 24.6781 16.0888 25.2058C16.6667 26.1488 16.6667 27.4326 16.6667 30C16.6667 32.5673 16.6667 33.8511 16.0888 34.7941C15.7655 35.3218 15.3218 35.7655 14.7942 36.0888C13.8511 36.6666 12.5674 36.6666 10 36.6666C7.43264 36.6666 6.14894 36.6666 5.20592 36.0888C4.67826 35.7655 4.23461 35.3218 3.91126 34.7941C3.33337 33.8511 3.33337 32.5673 3.33337 30Z" stroke="#141B34" stroke-width="1.5"/>
<path d="M23.3334 30C23.3334 27.4326 23.3334 26.1488 23.9112 25.2058C24.2345 24.6781 24.6782 24.2345 25.2059 23.9111C26.1489 23.3333 27.4327 23.3333 30 23.3333C32.5674 23.3333 33.8512 23.3333 34.7942 23.9111C35.3219 24.2345 35.7655 24.6781 36.0889 25.2058C36.6667 26.1488 36.6667 27.4326 36.6667 30C36.6667 32.5673 36.6667 33.8511 36.0889 34.7941C35.7655 35.3218 35.3219 35.7655 34.7942 36.0888C33.8512 36.6666 32.5674 36.6666 30 36.6666C27.4327 36.6666 26.1489 36.6666 25.2059 36.0888C24.6782 35.7655 24.2345 35.3218 23.9112 34.7941C23.3334 33.8511 23.3334 32.5673 23.3334 30Z" stroke="#141B34" stroke-width="1.5"/>
<path d="M3.33337 9.99998C3.33337 7.43258 3.33337 6.14888 3.91126 5.20586C4.23461 4.6782 4.67826 4.23455 5.20592 3.9112C6.14894 3.33331 7.43264 3.33331 10 3.33331C12.5674 3.33331 13.8511 3.33331 14.7942 3.9112C15.3218 4.23455 15.7655 4.6782 16.0888 5.20586C16.6667 6.14888 16.6667 7.43258 16.6667 9.99998C16.6667 12.5674 16.6667 13.8511 16.0888 14.7941C15.7655 15.3218 15.3218 15.7654 14.7942 16.0888C13.8511 16.6666 12.5674 16.6666 10 16.6666C7.43264 16.6666 6.14894 16.6666 5.20592 16.0888C4.67826 15.7654 4.23461 15.3218 3.91126 14.7941C3.33337 13.8511 3.33337 12.5674 3.33337 9.99998Z" stroke="#141B34" stroke-width="1.5"/>
<path d="M23.3334 9.99998C23.3334 7.43258 23.3334 6.14888 23.9112 5.20586C24.2345 4.6782 24.6782 4.23455 25.2059 3.9112C26.1489 3.33331 27.4327 3.33331 30 3.33331C32.5674 3.33331 33.8512 3.33331 34.7942 3.9112C35.3219 4.23455 35.7655 4.6782 36.0889 5.20586C36.6667 6.14888 36.6667 7.43258 36.6667 9.99998C36.6667 12.5674 36.6667 13.8511 36.0889 14.7941C35.7655 15.3218 35.3219 15.7654 34.7942 16.0888C33.8512 16.6666 32.5674 16.6666 30 16.6666C27.4327 16.6666 26.1489 16.6666 25.2059 16.0888C24.6782 15.7654 24.2345 15.3218 23.9112 14.7941C23.3334 13.8511 23.3334 12.5674 23.3334 9.99998Z" stroke="#141B34" stroke-width="1.5"/>
</svg>
