<svg width="30" height="29" viewBox="0 0 30 29" fill="none" xmlns="http://www.w3.org/2000/svg">
<path d="M8.75 9.0625L12.4275 11.1643C14.5715 12.3896 15.4285 12.3896 17.5725 11.1643L21.25 9.0625" stroke="#141B34" stroke-width="1.5" stroke-linecap="round" stroke-linejoin="round"/>
<path d="M14.375 23.5625C14.375 23.5625 12.5864 23.5478 11.3735 23.5183C7.43791 23.4227 5.4701 23.375 4.0562 22.0031C2.64229 20.631 2.60143 18.779 2.51971 15.0747C2.49344 13.8837 2.49342 12.6997 2.5197 11.5087C2.60142 7.80449 2.64228 5.95239 4.05619 4.58041C5.4701 3.20842 7.43791 3.16063 11.3735 3.06505C13.7991 3.00615 16.2009 3.00615 18.6265 3.06506C22.5621 3.16066 24.5299 3.20844 25.9439 4.58042C27.3577 5.9524 27.3986 7.8045 27.4802 11.5087C27.4897 11.9399 27.4959 12.6869 27.4985 13.2917" stroke="#141B34" stroke-width="1.5" stroke-linecap="round" stroke-linejoin="round"/>
<path d="M17.5 21.1458H27.5M22.5 25.9792V16.3125" stroke="#141B34" stroke-width="1.5" stroke-linecap="round" stroke-linejoin="round"/>
</svg>
