<svg width="35" height="35" viewBox="0 0 35 35" fill="none" xmlns="http://www.w3.org/2000/svg">
<path d="M31.0881 10.4146L30.3682 9.16536C29.8238 8.22061 29.5517 7.74824 29.0885 7.55987C28.6254 7.37151 28.1015 7.52014 27.054 7.81741L25.2746 8.31864C24.6058 8.47287 23.904 8.38537 23.2934 8.07161L22.8021 7.78816C22.2784 7.45275 21.8756 6.95823 21.6526 6.37696L21.1657 4.92244C20.8455 3.95992 20.6853 3.47865 20.3041 3.20338C19.9231 2.9281 19.4167 2.9281 18.4041 2.9281H16.7783C15.7658 2.9281 15.2595 2.9281 14.8782 3.20338C14.4971 3.47865 14.337 3.95992 14.0168 4.92244L13.5298 6.37696C13.3068 6.95823 12.904 7.45275 12.3804 7.78816L11.8891 8.07161C11.2784 8.38537 10.5767 8.47287 9.90793 8.31864L8.12842 7.81741C7.08085 7.52014 6.55707 7.37151 6.09393 7.55987C5.63079 7.74824 5.35861 8.22061 4.81422 9.16536L4.09441 10.4146C3.58413 11.3001 3.32898 11.7429 3.3785 12.2143C3.42801 12.6857 3.76958 13.0655 4.45271 13.8252L5.95631 15.5062C6.32381 15.9714 6.58472 16.7823 6.58472 17.5113C6.58472 18.2406 6.3239 19.0511 5.95635 19.5165L4.45271 21.1975C3.76958 21.9573 3.42803 22.337 3.3785 22.8085C3.32898 23.2799 3.58413 23.7226 4.09441 24.6081L4.8142 25.8573C5.35858 26.802 5.63079 27.2745 6.09393 27.4628C6.55707 27.6512 7.08086 27.5026 8.12845 27.2053L9.90787 26.704C10.5768 26.5497 11.2786 26.6374 11.8893 26.9512L12.3806 27.2347C12.9041 27.5701 13.3068 28.0645 13.5297 28.6458L14.0168 30.1005C14.337 31.063 14.4971 31.5442 14.8782 31.8196C15.2595 32.0948 15.7658 32.0948 16.7783 32.0948H18.4041C19.4167 32.0948 19.9231 32.0948 20.3041 31.8196C20.6853 31.5442 20.8455 31.063 21.1657 30.1005L21.6528 28.6458C21.8756 28.0645 22.2783 27.5701 22.802 27.2347L23.2931 26.9512C23.9039 26.6374 24.6056 26.5497 25.2746 26.704L27.054 27.2053C28.1015 27.5026 28.6254 27.6512 29.0885 27.4628C29.5517 27.2745 29.8238 26.802 30.3682 25.8573L31.0881 24.6081C31.5983 23.7226 31.8534 23.2799 31.804 22.8085C31.7544 22.337 31.4128 21.9573 30.7297 21.1975L29.2261 19.5165C28.8586 19.0511 28.5977 18.2406 28.5977 17.5113C28.5977 16.7823 28.8587 15.9714 29.2261 15.5062L30.7297 13.8252C31.4128 13.0655 31.7544 12.6857 31.804 12.2143C31.8534 11.7429 31.5983 11.3001 31.0881 10.4146Z" stroke="#454548" stroke-width="1.5" stroke-linecap="round"/>
<path d="M22.6326 17.5C22.6326 20.319 20.3474 22.6042 17.5284 22.6042C14.7095 22.6042 12.4243 20.319 12.4243 17.5C12.4243 14.6811 14.7095 12.3959 17.5284 12.3959C20.3474 12.3959 22.6326 14.6811 22.6326 17.5Z" stroke="#454548" stroke-width="1.5"/>
</svg>
