<svg width="47" height="47" viewBox="0 0 47 47" fill="none" xmlns="http://www.w3.org/2000/svg">
<path d="M27.3871 42.7506L31.3466 34.766C31.8866 33.6545 33.3264 32.5884 34.5414 32.3843L41.718 31.1821C46.3076 30.4108 47.3875 27.0537 44.0803 23.7419L38.501 18.1164C37.556 17.1638 37.0387 15.3264 37.331 14.0106L38.9285 7.04688C40.1882 1.53483 37.286 -0.59749 32.4491 2.28341L25.7223 6.29831C24.5075 7.02416 22.5053 7.02416 21.2678 6.29831L14.5411 2.28341C9.72662 -0.59749 6.80196 1.55756 8.06182 7.04688L9.65914 14.0106C9.9516 15.3264 9.43416 17.1638 8.48925 18.1164L2.90989 23.7419C-0.374751 27.0537 0.682637 30.4108 5.27212 31.1821L12.4488 32.3843C13.6412 32.5884 15.081 33.6545 15.621 34.766L19.5805 42.7506C21.7403 47.0831 25.2498 47.0831 27.3871 42.7506Z" stroke="#FFBA00" stroke-width="1.5" stroke-linecap="round" stroke-linejoin="round"/>
</svg>
