<svg width="115" height="54" viewBox="0 0 115 54" fill="none" xmlns="http://www.w3.org/2000/svg">
<path fill-rule="evenodd" clip-rule="evenodd" d="M37.1509 1.17804L4.91017 18.9426C0.491323 21.3729 -1.0215 26.764 1.53271 30.9803C4.07988 35.1965 9.73009 36.6399 14.1489 34.2029L46.3896 16.4451C50.8085 14.0147 52.3213 8.62356 49.7671 4.40734C47.2199 0.191116 41.5697 -1.25233 37.1509 1.18476V1.17804Z" fill="#EA4334"/>
<path fill-rule="evenodd" clip-rule="evenodd" d="M46.0939 36.8414L13.8533 19.0836C9.43441 16.6533 3.79123 18.0967 1.23703 22.3062C-1.31014 26.5224 0.202681 31.9069 4.61449 34.3439L36.8552 52.1017C41.274 54.5321 46.9172 53.0887 49.4714 48.8792C52.0186 44.6629 50.5058 39.2785 46.0939 36.8414Z" fill="#4285F4"/>
<path fill-rule="evenodd" clip-rule="evenodd" d="M67.6536 37.1232L99.8942 19.3654C104.313 16.935 109.956 18.3784 112.51 22.588C115.058 26.8042 113.545 32.1886 109.133 34.6257L76.8923 52.3835C72.4735 54.8138 66.8303 53.3704 64.2761 49.1609C61.7289 44.9447 63.2417 39.5603 67.6536 37.1232Z" fill="#FCBC05"/>
<path fill-rule="evenodd" clip-rule="evenodd" d="M77.1807 1.46014L109.421 19.218C113.84 21.6483 115.353 27.0394 112.799 31.2557C110.252 35.4719 104.601 36.9153 100.183 34.4783L67.9419 16.7205C63.5231 14.2901 62.0102 8.89896 64.5644 4.68273C67.1116 0.466514 72.7618 -0.976939 77.1807 1.46014Z" fill="#0D9D58"/>
</svg>
